<?xml version="1.0" encoding="UTF-8"?>
<svg id="Layer_2" data-name="Layer 2" xmlns="http://www.w3.org/2000/svg" viewBox="0 0 730.63 734.88">
  <defs>
    <style>
      .cls-1 {
        fill: #000;
        stroke-width: 0px;
      }
    </style>
  </defs>
  <g id="Layer_1-2" data-name="Layer 1">
    <g>
      <path class="cls-1" d="M487.89,734.81c-43.05-.37-80.85-14.46-114.61-41.49-32.51-26.03-65.29-51.69-96.65-79.1-19.94-17.43-39.5-35.28-58.84-53.39-25.41-23.79-50.4-48.02-75.11-72.53-11.58-11.48-23.97-22.23-34.25-34.96-10.17-12.6-14.82-26.74-10.05-42.91,7.22-24.5,35.46-36.29,58.06-24.41,11.29,5.93,19.6,15.4,28.77,23.82,32.51,29.86,64.86,59.89,97.31,89.8,2.06,1.9,4.38,3.62,6.82,5.01,3.26,1.85,6.68,2.29,9.51-.98,2.96-3.42.92-6.43-1.32-8.87-6.31-6.86-12.85-13.52-19.38-20.19-14.56-14.87-29.17-29.68-43.74-44.53-14.92-15.21-29.86-30.41-44.73-45.67-33.24-34.13-66.68-68.08-99.55-102.57-12.73-13.36-16.69-29.92-9.27-47.21,7.77-18.1,21.83-29.4,42.12-30.64,14-.86,25.62,5.36,35.09,15.3,28.39,29.77,56.66,59.67,84.91,89.58,25.62,27.12,51.15,54.33,76.74,81.49,3.2,3.4,6.43,6.8,10.51,9.17,2.75,1.59,5.71,2.37,8.29-.19,2.61-2.59,2.49-5.66.76-8.73-3.63-6.43-8.45-11.96-13.28-17.47-22.83-26.06-45.66-52.11-68.49-78.17-20.3-23.17-40.64-46.32-60.9-69.53-19.82-22.71-40.19-44.98-59.12-68.41-14.05-17.39-17.17-37.47-6.24-57.97,11.96-22.45,36.97-29.38,59.58-17.66,14.8,7.68,25.35,19.78,35.71,32.22,26.11,31.36,52.26,62.69,78.36,94.05,23.33,28.04,46.6,56.12,69.93,84.16,5.01,6.02,10.05,12.01,15.28,17.83,4.73,5.25,9.51,6.73,12.5,4.33,2.83-2.27,2.27-7.58-1.84-13.16-11.56-15.69-23.2-31.32-34.91-46.9-35.92-47.82-71.88-95.61-107.82-143.42-13.89-18.48-13.61-40.13.69-57.6,11.02-13.47,31.51-18.47,48.78-11.94,10.44,3.95,18.82,10.64,25.51,19.42,32.79,43.07,65.45,86.24,98.26,129.3,27.26,35.77,55.67,70.62,84.88,104.8,8.92,10.44,18.83,19,33.42,20.95,13.41,1.79,23.02-3.03,30.22-13.87,5.02-7.57,8.22-15.96,10.93-24.57,6.03-19.11,7.57-39.33,13.82-58.31,9.69-29.41,28.29-51.69,57.44-63.4,16.85-6.76,34.07-5.33,50.22,3.51,15.88,8.69,22.02,26.17,16.35,44.88-4.83,15.93-13.18,30.21-20.79,44.81-15.9,30.5-24.03,62.37-21.28,97.17,2.66,33.69,10.46,66.42,15.86,99.6,4.12,25.34,7.2,50.89,6.31,76.57-1.29,37.31-13.05,71.02-36.39,100.66-23.59,29.95-50.22,56.54-82.41,77.13-28.75,18.4-59.17,32.77-93.97,35.18-2.65.18-5.33.02-7.99.02Z"/>
      <path class="cls-1" d="M553.59,152.41c-3.32.63-3.81-2.03-4.62-4.12-4.63-11.97-9.97-23.58-16.41-34.71-14.68-25.36-33.37-47.19-56.48-65.25-14.49-11.32-29.96-20.97-46.77-28.48-6.19-2.76-6.22-2.9-3.97-9.36,4.54-13.02,2.86-12.15,14.95-6.84,22.46,9.86,42.41,23.61,60.59,39.97,24.52,22.07,44.32,47.74,58.58,77.58,3.6,7.53,6.33,15.38,9.3,23.15,1.49,3.9.51,6.02-3.79,6.5-3.8.42-7.58,1.04-11.38,1.57Z"/>
      <path class="cls-1" d="M15.16,487.99c4.09-.5,4.61,2.34,5.43,4.59,5.75,15.7,13.22,30.54,22.3,44.56,18.38,28.37,41.79,51.59,70.65,69.33,9.1,5.59,18.46,10.62,28.2,14.93,3.34,1.48,4.02,3.36,2.85,6.61-5.44,15.09-2.9,13.26-16.15,7.82-20.95-8.59-39.5-21.28-56.55-36.09-23.21-20.17-42.38-43.64-57-70.76-5.78-10.72-10.51-21.88-14.35-33.44-1.15-3.45-.63-5.37,3.38-5.79,3.96-.42,7.89-1.22,11.25-1.76Z"/>
      <path class="cls-1" d="M65.03,464.29c3.02-.4,3.62,1.87,4.42,3.89,7.84,19.83,18.59,37.94,32.57,54.04,18.78,21.64,41.2,38.19,68.43,47.69,4.02,1.4,5.62,3.05,3.61,7.15-.8,1.63-1.23,3.44-1.8,5.18-2.52,7.73-2.56,7.83-10.32,4.7-30.89-12.46-56.86-31.55-77.8-57.53-13.68-16.96-24.54-35.56-33.39-55.4-2.46-5.52-2.43-5.58,3.6-7.17,3.54-.93,7.12-1.71,10.68-2.56Z"/>
      <path class="cls-1" d="M503.98,175.86c-3.9.34-4.31-2.32-5.11-4.41-6.97-18.2-16.65-34.82-28.91-49.95-19.41-23.96-43.42-41.59-72.48-52.1-3.55-1.28-4.16-2.88-3.08-6.3,4.11-13.03,3.98-12.98,15.96-7.96,39.18,16.41,68.81,43.68,90.87,79.62,6.55,10.67,12.11,21.83,17.34,33.19,1.45,3.15.79,4.6-2.53,5.26-4.25.84-8.46,1.85-12.06,2.65Z"/>
    </g>
  </g>
</svg>