<?xml version="1.0" encoding="UTF-8"?>
<svg id="Layer_2" data-name="Layer 2" xmlns="http://www.w3.org/2000/svg" viewBox="0 0 47.8 32.49">
  <defs>
    <style>
      .cls-1 {
        fill: #000;
        stroke-width: 0px;
      }
    </style>
  </defs>
  <g id="Layer_1-2" data-name="Layer 1">
    <g>
      <path class="cls-1" d="M7.74,4.79c0-1.55.02-3.12.05-4h-.04c-.36,1.35-1.71,4.93-2.66,7.56h-.99C3.36,6.21,1.97,2.19,1.59.77h-.04c.06.96.09,2.82.09,4.25v3.33H.6V0h1.65c.95,2.59,2.11,5.93,2.39,6.99h.02c.2-.8,1.57-4.47,2.55-6.99h1.6v8.34h-1.08v-3.56Z"/>
      <path class="cls-1" d="M11.11,2.26c.98,2.91,1.52,4.53,1.68,5.14h.01c.2-.69.63-2.08,1.62-5.14h1.06l-2.19,6.36c-.62,1.78-1.08,2.23-2.32,2.23-.19,0-.42-.01-.65-.04v-.91c.15.02.33.03.5.03.77,0,1.06-.34,1.42-1.35l-2.28-6.32h1.14Z"/>
      <path class="cls-1" d="M.04,20.34v-.07c0-1.14.75-2.32,2.38-3.55,1.27-.97,1.61-1.27,1.61-2.14,0-.79-.42-1.39-1.37-1.39s-1.41.5-1.57,1.46H.06c.14-1.34.99-2.34,2.6-2.34,1.77,0,2.46,1.14,2.46,2.24,0,1.19-.51,1.66-1.97,2.79-1.09.84-1.67,1.47-1.86,2.08h4.14l-.15.93H.04Z"/>
      <path class="cls-1" d="M11.98,16.34c0,1.96-.56,4.15-2.76,4.15s-2.75-2.05-2.75-4.09.65-4.09,2.79-4.09,2.73,2.01,2.73,4.03ZM7.58,16.4c0,1.5.26,3.2,1.65,3.2s1.64-1.61,1.64-3.25c0-1.52-.26-3.14-1.61-3.14s-1.68,1.46-1.68,3.19Z"/>
      <path class="cls-1" d="M13.15,20.34v-.07c0-1.14.75-2.32,2.38-3.55,1.27-.97,1.61-1.27,1.61-2.14,0-.79-.42-1.39-1.37-1.39s-1.41.5-1.57,1.46h-1.03c.14-1.34.99-2.34,2.6-2.34,1.77,0,2.46,1.14,2.46,2.24,0,1.19-.51,1.66-1.97,2.79-1.09.84-1.67,1.47-1.86,2.08h4.14l-.15.93h-5.23Z"/>
      <path class="cls-1" d="M19.6,14.33c.12-.97.81-2.02,2.5-2.02s2.38,1,2.38,2.05c0,.96-.57,1.45-1.05,1.63v.03c.71.23,1.39.81,1.39,1.99,0,1.25-.78,2.48-2.74,2.48-1.81,0-2.58-1.14-2.7-2.19h1.04c.16.7.69,1.31,1.7,1.31,1.13,0,1.6-.75,1.6-1.6,0-1.05-.65-1.52-1.71-1.52h-.57v-.86h.47c1.03,0,1.48-.41,1.48-1.23,0-.71-.47-1.2-1.35-1.2-.95,0-1.3.51-1.44,1.14h-1.02Z"/>
      <path class="cls-1" d="M1.13,30.02c.23,1,.91,1.54,2.12,1.54,1.3,0,1.82-.61,1.82-1.4,0-.84-.41-1.31-2.08-1.71-1.97-.48-2.65-1.15-2.65-2.32,0-1.24.91-2.25,2.78-2.25,1.99,0,2.8,1.15,2.92,2.24h-1.13c-.15-.74-.61-1.35-1.83-1.35-1.02,0-1.59.46-1.59,1.25s.47,1.09,1.93,1.45c2.38.58,2.8,1.51,2.8,2.58,0,1.35-1,2.4-3.04,2.4s-3-1.15-3.18-2.43h1.13Z"/>
      <path class="cls-1" d="M8.7,23.54v3.62c.31-.53.86-1.04,1.9-1.04.97,0,2.05.53,2.05,2.34v3.88h-1.05v-3.71c0-1.03-.44-1.61-1.32-1.61-1.09,0-1.58.72-1.58,1.99v3.32h-1.05v-8.81h1.05Z"/>
      <path class="cls-1" d="M19.67,29.29c0,1.75-1,3.2-2.86,3.2-1.74,0-2.8-1.35-2.8-3.18s1.03-3.19,2.87-3.19c1.69,0,2.79,1.26,2.79,3.17ZM15.09,29.3c0,1.33.67,2.31,1.76,2.31s1.74-.92,1.74-2.3-.62-2.31-1.76-2.31-1.73.92-1.73,2.31Z"/>
      <path class="cls-1" d="M21.49,26.26c.76,2.85,1.19,4.48,1.29,5.11h.02c.11-.56.54-2.08,1.4-5.11h1.03c.95,3.44,1.23,4.44,1.33,4.99h.01c.15-.65.39-1.56,1.34-4.99h1.06l-1.87,6.08h-1.14c-.59-2.22-1.18-4.27-1.3-4.93h-.01c-.11.66-.65,2.51-1.34,4.93h-1.17l-1.76-6.08h1.11Z"/>
      <path class="cls-1" d="M29.96,27.92c0-.85,0-1.33-.01-1.65h1.03c.02.17.03.65.03,1.24.32-.82,1.04-1.35,2.05-1.39v1.05c-1.25.04-2.05.69-2.05,2.23v2.95h-1.05v-4.43Z"/>
      <path class="cls-1" d="M34.72,29.49c0,1.24.63,2.12,1.66,2.12.96,0,1.27-.5,1.47-.94h1.06c-.24.78-.89,1.82-2.56,1.82-1.91,0-2.69-1.55-2.69-3.12,0-1.81.91-3.25,2.76-3.25,1.96,0,2.6,1.57,2.6,2.87,0,.19,0,.34-.02.5h-4.29ZM37.95,28.75c-.01-1-.52-1.8-1.55-1.8s-1.54.74-1.65,1.8h3.2Z"/>
      <path class="cls-1" d="M41.06,29.49c0,1.24.63,2.12,1.66,2.12.96,0,1.27-.5,1.47-.94h1.06c-.24.78-.89,1.82-2.56,1.82-1.91,0-2.69-1.55-2.69-3.12,0-1.81.91-3.25,2.76-3.25,1.96,0,2.6,1.57,2.6,2.87,0,.19,0,.34-.02.5h-4.29ZM44.3,28.75c-.01-1-.52-1.8-1.55-1.8s-1.54.74-1.65,1.8h3.2Z"/>
      <path class="cls-1" d="M46.75,32.34v-8.81h1.05v8.81h-1.05Z"/>
    </g>
  </g>
</svg>