<?xml version="1.0" encoding="UTF-8"?>
<svg id="Layer_2" data-name="Layer 2" xmlns="http://www.w3.org/2000/svg" viewBox="0 0 37 37">
  <defs>
    <style>
      .cls-1 {
        fill: #000;
        stroke-width: 0px;
      }
    </style>
  </defs>
  <g id="Layer_1-2" data-name="Layer 1">
    <g>
      <path class="cls-1" d="M19.56,9.4h-.75l-2.58,18.22h.79c1.45,0,1.98-1.17,2.35-3.86l1.45-10.36c.37-2.55.26-4.01-1.26-4.01Z"/>
      <path class="cls-1" d="M10.81,9.4h-.81l-1.09,7.87h.82c1.35,0,1.69-1.04,1.97-3l.2-1.41c.27-1.92.28-3.46-1.09-3.46Z"/>
      <path class="cls-1" d="M0,0v37h37V0H0ZM9.43,20.34h-.97l-1.45,10.35h-2.43l3.42-24.38h3.1c2.65,0,3.78,2.41,3.24,6.5l-.22,1.68c-.5,3.89-1.58,5.85-4.7,5.85ZM17.05,30.69h-3.66l3.42-24.38h2.9c3.58,0,4.11,3.27,3.4,8.33l-1.29,9.16c-.62,4.33-1.4,6.89-4.76,6.89ZM31.92,9.73h-3.69l-.88,6.5h3.52l-.51,3.42h-3.52l-1.54,11.05h-2.48l3.42-24.38h6.17l-.49,3.42Z"/>
    </g>
  </g>
</svg>