<?xml version="1.0" encoding="UTF-8"?>
<svg id="Layer_2" data-name="Layer 2" xmlns="http://www.w3.org/2000/svg" viewBox="0 0 57 25.06">
  <defs>
    <style>
      .cls-1 {
        fill: #000;
        stroke-width: 0px;
      }
    </style>
  </defs>
  <g id="Layer_1-2" data-name="Layer 1">
    <g>
      <path class="cls-1" d="M17.97,3.76h-1.49v2.4h1.49c.27,0,.49-.09.64-.26s.24-.4.24-.7v-.46c0-.3-.08-.53-.24-.71s-.37-.27-.65-.27Z"/>
      <path class="cls-1" d="M11.19,9.76c.38,0,.68-.12.9-.35s.33-.55.33-.95v-3.45c0-.4-.11-.71-.33-.95s-.52-.35-.9-.35-.68.12-.9.35-.33.55-.33.95v3.45c0,.4.11.71.33.95s.52.35.9.35Z"/>
      <path class="cls-1" d="M5.89,6.13c.16-.19.24-.44.24-.74v-.57c0-.32-.08-.58-.24-.77s-.38-.28-.66-.28h-1.46v2.65h1.46c.27,0,.49-.09.65-.28Z"/>
      <path class="cls-1" d="M35.03,3.72c-.38,0-.68.12-.9.35s-.33.55-.33.95v3.45c0,.4.11.71.33.95s.52.35.9.35.68-.12.9-.35.33-.55.33-.95v-3.45c0-.4-.11-.71-.33-.95s-.52-.35-.9-.35Z"/>
      <path class="cls-1" d="M50,0H0v18.74c0,3.1,1.85,6.32,5.06,6.32.63,0,1.41-.22,1.92-.59l1.48-1.08c.32-.23.74-.23,1.23.12l1.36.99c.49.36,1.34.42,1.95.42,3.25,0,5-3.07,5-6.18v-4.74h32c3.87,0,7-3.13,7-7s-3.13-7-7-7ZM8.59,4.99c0-.54.11-1,.32-1.39s.51-.69.9-.9.85-.32,1.38-.32.99.11,1.38.32.69.51.9.9.32.85.32,1.39v3.49c0,.53-.11.99-.32,1.38s-.51.69-.9.9-.85.32-1.38.32-.99-.11-1.38-.32-.69-.51-.9-.9-.32-.85-.32-1.38v-3.49ZM2.44,2.48h2.78c.47,0,.88.09,1.22.27s.6.44.79.79.28.75.28,1.21v.7c0,.46-.09.86-.28,1.2s-.45.6-.8.78-.75.27-1.21.27h-1.44v3.3h-1.34V2.48ZM19,11l-1.48-3.56h-1.05v3.56h-1.34V2.47h2.8c.47,0,.88.09,1.22.27s.61.43.8.76.28.73.28,1.18v.5c0,.46-.09.87-.28,1.2s-.46.59-.8.78c-.08.04-.18.06-.26.1l1.64,3.74h-1.54ZM26.05,3.76h-1.92v7.24h-1.33V3.76h-1.92v-1.28h5.17v1.28ZM31.56,3.76h-3.26v2.45h2.79v1.27h-2.79v3.52h-1.34V2.48h4.61v1.28ZM37.63,8.49c0,.53-.11.99-.32,1.38s-.51.69-.9.9-.85.32-1.38.32-.99-.11-1.38-.32-.69-.51-.9-.9-.32-.85-.32-1.38v-3.49c0-.54.11-1,.32-1.39s.51-.69.9-.9.85-.32,1.38-.32.99.11,1.38.32.69.51.9.9.32.85.32,1.39v3.49ZM43.57,11h-4.6V2.48h1.34v7.24h3.26v1.28ZM45.92,11h-1.35V2.48h1.35v8.52ZM52.52,8.49c0,.53-.11.99-.32,1.38s-.51.69-.9.9-.85.32-1.38.32-.99-.11-1.38-.32-.69-.51-.9-.9-.32-.85-.32-1.38v-3.49c0-.54.11-1,.32-1.39s.51-.69.9-.9.85-.32,1.38-.32.99.11,1.38.32.69.51.9.9.32.85.32,1.39v3.49Z"/>
      <path class="cls-1" d="M49.92,3.72c-.38,0-.68.12-.9.35s-.33.55-.33.95v3.45c0,.4.11.71.33.95s.52.35.9.35.68-.12.9-.35.33-.55.33-.95v-3.45c0-.4-.11-.71-.33-.95s-.52-.35-.9-.35Z"/>
    </g>
  </g>
</svg>